<svg width="20" height="20" viewBox="0 0 20 20" fill="none" xmlns="http://www.w3.org/2000/svg">
<path fill-rule="evenodd" clip-rule="evenodd" d="M10 0.25C4.61522 0.25 0.25 4.61522 0.25 10C0.25 15.3848 4.61522 19.75 10 19.75C15.3848 19.75 19.75 15.3848 19.75 10C19.7443 4.61758 15.3824 0.255684 10 0.25V0.25ZM4.945 16.5156C6.0476 14.7912 7.9532 13.7478 10 13.7478C12.0468 13.7478 13.9524 14.7912 15.055 16.5156C12.0817 18.828 7.91832 18.828 4.945 16.5156V16.5156ZM7 9.25C7 7.59315 8.34315 6.25 10 6.25C11.6569 6.25 13 7.59315 13 9.25C13 10.9069 11.6569 12.25 10 12.25C8.34315 12.25 7 10.9069 7 9.25V9.25ZM16.165 15.4759C15.3285 14.2638 14.1524 13.3261 12.7844 12.7806C14.2906 11.5943 14.8797 9.58375 14.2519 7.77207C13.6242 5.96039 11.9174 4.74548 10 4.74548C8.08263 4.74548 6.37584 5.96039 5.74805 7.77207C5.12026 9.58375 5.70936 11.5943 7.21562 12.7806C5.84764 13.3261 4.67147 14.2638 3.835 15.4759C0.890462 12.1647 1.08752 7.11881 4.28133 4.0473C7.47513 0.975791 12.5249 0.975791 15.7187 4.0473C18.9125 7.11881 19.1095 12.1647 16.165 15.4759V15.4759Z" fill="black"/>
</svg>
