<svg width="18" height="16" viewBox="0 0 18 16" fill="none" xmlns="http://www.w3.org/2000/svg">
<path fill-rule="evenodd" clip-rule="evenodd" d="M18.0001 7.99993C18.0001 8.41414 17.6643 8.74993 17.2501 8.74993H2.56041L8.03073 14.2193C8.32378 14.5124 8.32378 14.9875 8.03073 15.2806C7.73767 15.5736 7.26253 15.5736 6.96948 15.2806L0.219477 8.53055C0.0786439 8.38988 -0.000488281 8.19899 -0.000488281 7.99993C-0.000488281 7.80087 0.0786439 7.60998 0.219477 7.4693L6.96948 0.719304C7.26253 0.426248 7.73767 0.426248 8.03073 0.719304C8.32378 1.01236 8.32378 1.4875 8.03073 1.78055L2.56041 7.24993H17.2501C17.6643 7.24993 18.0001 7.58571 18.0001 7.99993Z" fill="#0D141C"/>
</svg>
