<svg width="20" height="14" viewBox="0 0 20 14" fill="none" xmlns="http://www.w3.org/2000/svg">
<path id="Vector - 0" fill-rule="evenodd" clip-rule="evenodd" d="M9.16016 9.3375C10.8801 8.19249 11.6474 6.05639 11.0493 4.07867C10.4512 2.10095 8.62868 0.748098 6.5625 0.748098C4.49632 0.748098 2.67381 2.10095 2.0757 4.07867C1.47758 6.05639 2.24494 8.19249 3.96484 9.3375C2.4496 9.89597 1.15555 10.9294 0.275781 12.2836C0.149943 12.4706 0.13457 12.7109 0.23555 12.9125C0.33653 13.114 0.538214 13.2456 0.763359 13.2567C0.988504 13.2679 1.20222 13.157 1.32266 12.9664C2.47564 11.1931 4.44731 10.1232 6.5625 10.1232C8.67769 10.1232 10.6494 11.1931 11.8023 12.9664C11.9931 13.2499 12.3761 13.3277 12.6623 13.141C12.9485 12.9543 13.0318 12.5724 12.8492 12.2836C11.9694 10.9294 10.6754 9.89597 9.16016 9.3375ZM3.125 5.4375C3.125 3.53902 4.66402 2 6.5625 2C8.46098 2 10 3.53902 10 5.4375C10 7.33598 8.46098 8.875 6.5625 8.875C4.66491 8.87285 3.12715 7.33509 3.125 5.4375ZM19.5422 13.1484C19.2531 13.337 18.8659 13.2555 18.6773 12.9664C17.5257 11.1919 15.553 10.1222 13.4375 10.125C13.0923 10.125 12.8125 9.84518 12.8125 9.5C12.8125 9.15482 13.0923 8.875 13.4375 8.875C14.8219 8.87369 16.0705 8.04201 16.6051 6.76498C17.1397 5.48795 16.8561 4.01483 15.8855 3.0276C14.915 2.04036 13.4469 1.73171 12.1609 2.24453C11.9522 2.33476 11.7109 2.30451 11.531 2.16554C11.351 2.02656 11.2607 1.8008 11.2952 1.57604C11.3297 1.35128 11.4835 1.16298 11.6969 1.08437C13.9257 0.195472 16.466 1.13334 17.5825 3.25736C18.699 5.38137 18.0312 8.00558 16.0352 9.3375C17.5504 9.89597 18.8444 10.9294 19.7242 12.2836C19.9127 12.5727 19.8312 12.9599 19.5422 13.1484Z" fill="#171412"/>
</svg>
