<svg width="18" height="19" viewBox="0 0 18 19" fill="none" xmlns="http://www.w3.org/2000/svg">
<path fill-rule="evenodd" clip-rule="evenodd" d="M17.5153 7.72855L10.0153 0.652302C10.0116 0.649103 10.0082 0.645658 10.005 0.641989C9.43281 0.121615 8.55876 0.121615 7.98656 0.641989L7.97625 0.652302L0.484688 7.72855C0.17573 8.01265 -6.37851e-05 8.4132 1.73613e-08 8.83293V17.5001C1.73613e-08 18.3285 0.671573 19.0001 1.5 19.0001H6C6.82843 19.0001 7.5 18.3285 7.5 17.5001V13.0001H10.5V17.5001C10.5 18.3285 11.1716 19.0001 12 19.0001H16.5C17.3284 19.0001 18 18.3285 18 17.5001V8.83293C18.0001 8.4132 17.8243 8.01265 17.5153 7.72855ZM16.5 17.5001H12V13.0001C12 12.1717 11.3284 11.5001 10.5 11.5001H7.5C6.67157 11.5001 6 12.1717 6 13.0001V17.5001H1.5V8.83293L1.51031 8.82355L9 1.75011L16.4906 8.82168L16.5009 8.83105L16.5 17.5001Z" fill="black"/>
</svg>
