<svg width="24" height="24" viewBox="0 0 24 24" fill="none" xmlns="http://www.w3.org/2000/svg">
<g clip-path="url(#clip0_285_2786)">
<path fill-rule="evenodd" clip-rule="evenodd" d="M21 4.5H15C13.8197 4.5 12.7082 5.05573 12 6C11.2918 5.05573 10.1803 4.5 9 4.5H3C2.17157 4.5 1.5 5.17157 1.5 6V18C1.5 18.8284 2.17157 19.5 3 19.5H9C10.2426 19.5 11.25 20.5074 11.25 21.75C11.25 22.1642 11.5858 22.5 12 22.5C12.4142 22.5 12.75 22.1642 12.75 21.75C12.75 20.5074 13.7574 19.5 15 19.5H21C21.8284 19.5 22.5 18.8284 22.5 18V6C22.5 5.17157 21.8284 4.5 21 4.5V4.5ZM9 18H3V6H9C10.2426 6 11.25 7.00736 11.25 8.25V18.75C10.6015 18.262 9.8116 17.9987 9 18V18ZM21 18H15C14.1884 17.9987 13.3985 18.262 12.75 18.75V8.25C12.75 7.00736 13.7574 6 15 6H21V18Z" fill="black"/>
</g>
<defs>
<clipPath id="clip0_285_2786">
<rect width="24" height="24" fill="white"/>
</clipPath>
</defs>
</svg>
