<svg width="19" height="19" viewBox="0 0 19 19" fill="none" xmlns="http://www.w3.org/2000/svg">
<path id="Vector - 0" fill-rule="evenodd" clip-rule="evenodd" d="M13.1297 4.93281C13.1297 5.45058 12.71 5.87031 12.1922 5.87031C11.6744 5.87031 11.2547 5.45058 11.2547 4.93281C11.2547 4.41505 11.6744 3.99531 12.1922 3.99531C12.71 3.99531 13.1297 4.41505 13.1297 4.93281ZM16.2445 11.2609C14.6227 13.3211 12.0375 14.4437 8.55625 14.6023L6.8375 18.6195C6.73912 18.851 6.51162 19.0009 6.26016 19H6.22031C5.9564 18.9835 5.73146 18.8026 5.65859 18.5484L4.50156 14.4977L0.453125 13.3383C0.198201 13.2667 0.0160616 13.0422 -0.00149364 12.778C-0.0190489 12.5138 0.13179 12.2672 0.375 12.1625L4.39297 10.4438C4.54922 6.96172 5.675 4.37656 7.73594 2.75547C11.1117 0.0992188 15.932 0.971875 16.8641 1.17344C17.3436 1.27706 17.7183 1.65167 17.8219 2.13125C18.0281 3.0625 18.9016 7.8875 16.2445 11.2656V11.2609ZM12.625 12.4852C11.1501 11.9233 10.1327 10.5598 10.0141 8.98594C8.44056 8.86756 7.07724 7.85041 6.51562 6.37578C5.96875 7.61484 5.675 9.11875 5.63281 10.8773C5.62686 11.1219 5.47879 11.3405 5.25391 11.4367L2.4875 12.6203L5.17969 13.3914C5.3871 13.4508 5.54923 13.6129 5.60859 13.8203L6.37734 16.5125L7.56328 13.7461C7.65987 13.5204 7.8796 13.3722 8.125 13.3672C9.88125 13.3258 11.3852 13.0305 12.625 12.4852ZM16.6039 2.39609C15.768 2.21484 11.4477 1.42812 8.5125 3.73828C8.14254 4.02985 7.80634 4.36186 7.51016 4.72813C7.44946 5.55476 7.75648 6.36608 8.34924 6.94544C8.94199 7.52479 9.76012 7.81318 10.5852 7.73359C10.7707 7.71599 10.9544 7.78209 11.0861 7.91386C11.2179 8.04563 11.284 8.22933 11.2664 8.41484C11.1868 9.24017 11.4753 10.0586 12.0551 10.6514C12.6348 11.2442 13.4465 11.551 14.2734 11.4898C14.6392 11.1942 14.9707 10.8585 15.2617 10.4891C17.5719 7.55391 16.7852 3.23281 16.6039 2.39609Z" fill="#171412"/>
</svg>
