<svg width="18" height="20" viewBox="0 0 18 20" fill="none" xmlns="http://www.w3.org/2000/svg">
<path fill-rule="evenodd" clip-rule="evenodd" d="M17.7938 14.4944C17.2734 13.5981 16.5 11.0622 16.5 7.75C16.5 3.60786 13.1421 0.25 9 0.25C4.85786 0.25 1.5 3.60786 1.5 7.75C1.5 11.0631 0.725625 13.5981 0.205312 14.4944C-0.065134 14.9581 -0.067101 15.5311 0.200155 15.9967C0.467411 16.4623 0.963134 16.7496 1.5 16.75H5.32594C5.68267 18.4956 7.21835 19.7492 9 19.7492C10.7816 19.7492 12.3173 18.4956 12.6741 16.75H16.5C17.0367 16.7493 17.5321 16.4619 17.7991 15.9963C18.0662 15.5308 18.0641 14.958 17.7938 14.4944ZM9 18.25C8.04674 18.2497 7.19713 17.6487 6.87938 16.75H11.1206C10.8029 17.6487 9.95326 18.2497 9 18.25Z" fill="#0D141C"/>
</svg>
