<svg width="32" height="32" viewBox="0 0 32 32" fill="none" xmlns="http://www.w3.org/2000/svg">
<g clip-path="url(#clip0_285_2519)">
<path fill-rule="evenodd" clip-rule="evenodd" d="M26 7H22.535L20.8312 4.445C20.6459 4.16715 20.334 4.0002 20 4H12C11.666 4.0002 11.3541 4.16715 11.1687 4.445L9.46375 7H6C4.34315 7 3 8.34315 3 10V24C3 25.6569 4.34315 27 6 27H26C27.6569 27 29 25.6569 29 24V10C29 8.34315 27.6569 7 26 7ZM20.5 16.5C20.5 18.9853 18.4853 21 16 21C13.5147 21 11.5 18.9853 11.5 16.5C11.5 14.0147 13.5147 12 16 12C18.4853 12 20.5 14.0147 20.5 16.5Z" fill="#171412"/>
</g>
<defs>
<clipPath id="clip0_285_2519">
<rect width="32" height="32" fill="white"/>
</clipPath>
</defs>
</svg>
