<svg width="20" height="16" viewBox="0 0 20 16" fill="none" xmlns="http://www.w3.org/2000/svg">
<path id="Vector - 0" fill-rule="evenodd" clip-rule="evenodd" d="M19.3461 1.11641C19.3276 0.799911 19.0751 0.547389 18.7586 0.528906C14.7148 0.294531 11.468 1.52422 10.0727 3.82734C9.15078 5.35 9.15234 7.19922 10.0602 8.96328C9.54344 9.57841 9.1658 10.298 8.95312 11.0727L7.68203 9.79688C8.29297 8.52109 8.26953 7.19141 7.60391 6.08672C6.57266 4.38437 4.19219 3.47187 1.23672 3.64531C0.920223 3.66379 0.667702 3.91632 0.649219 4.23281C0.475 7.18828 1.38828 9.56875 3.09063 10.6C3.65239 10.9432 4.29793 11.1249 4.95625 11.125C5.59523 11.1171 6.22428 10.9657 6.79688 10.682L8.75 12.6352V14.875C8.75 15.2202 9.02982 15.5 9.375 15.5C9.72018 15.5 10 15.2202 10 14.875V12.5711C9.99722 11.5768 10.3356 10.6116 10.9586 9.83672C11.7625 10.2568 12.654 10.4816 13.5609 10.493C14.4378 10.4958 15.2984 10.2563 16.0477 9.80078C18.3508 8.40703 19.5836 5.16016 19.3461 1.11641ZM3.73516 9.53125C2.53672 8.80547 1.85859 7.0875 1.875 4.875C4.0875 4.85625 5.80547 5.53672 6.53125 6.73516C6.91016 7.36016 6.97187 8.08906 6.72344 8.83984L4.81641 6.93281C4.57068 6.69936 4.18365 6.70431 3.94398 6.94398C3.70431 7.18365 3.69936 7.57068 3.93281 7.81641L5.83984 9.72344C5.08906 9.97188 4.36094 9.91016 3.73516 9.53125ZM15.4 8.73281C14.3531 9.36641 13.1227 9.41484 11.8727 8.88906L16.0672 4.69375C16.3006 4.44802 16.2957 4.061 16.056 3.82133C15.8163 3.58166 15.4293 3.5767 15.1836 3.81016L10.9883 8C10.4602 6.75 10.5078 5.51875 11.1445 4.47266C12.2336 2.67578 14.8164 1.67422 18.1234 1.75156C18.1984 5.05781 17.1984 7.64375 15.4 8.73281Z" fill="#171412"/>
</svg>
